<svg width="104" height="41" viewBox="0 0 104 41" fill="none" xmlns="http://www.w3.org/2000/svg">
<path d="M20.558 24.0169L17.3037 26.3429L8 13.3259L11.2542 11L20.558 24.0169Z" fill="white"/>
<path d="M31.4646 4.73205C30.2985 4.18605 29.284 3.91304 28.4211 3.91304C27.5583 3.91304 26.8876 4.26357 26.409 4.96461C25.9304 5.66566 25.6911 6.63296 25.6911 7.86653C25.6911 10.4213 26.6652 11.6987 28.6133 11.6987C29.503 11.6987 30.6288 11.4223 31.9904 10.8696V13.9029C30.8849 14.395 29.6277 14.6411 28.2189 14.6411C26.2102 14.6411 24.6699 14.058 23.5981 12.8918C22.533 11.7256 22.0005 10.0438 22.0005 7.84631C21.987 6.47792 22.2398 5.27132 22.7589 4.22649C23.2846 3.17492 24.0396 2.36603 25.0238 1.7998C26.0079 1.22683 27.1505 0.947084 28.4515 0.960566C29.894 0.960566 31.2658 1.27401 32.5667 1.90091L31.4646 4.73205Z" fill="white"/>
<path d="M37.9427 4.1456V14.459H34.3836V4.1456H37.9427ZM38.0843 1.58746C38.0843 2.62555 37.4507 3.14459 36.1834 3.14459C34.9228 3.14459 34.2926 2.62555 34.2926 1.58746C34.2926 1.04146 34.4409 0.640377 34.7375 0.384226C35.0408 0.128075 35.5194 0 36.1733 0C36.8339 0 37.3158 0.131446 37.6192 0.394337C37.9293 0.657229 38.0843 1.05494 38.0843 1.58746Z" fill="white"/>
<path d="M46.6466 3.9636C46.8757 3.9636 47.2364 4.00067 47.7285 4.07482L47.415 7.43175C47.1049 7.3576 46.7005 7.32053 46.2017 7.32053C44.7187 7.32053 43.9772 8.01146 43.9772 9.39333V14.459H40.418V4.1456H43.0672L43.6233 5.79373H43.7952C44.0918 5.24098 44.5064 4.79946 45.0389 4.46916C45.5781 4.13212 46.114 3.9636 46.6466 3.9636Z" fill="white"/>
<path d="M53.4987 14.6411C51.8202 14.6411 50.5428 14.1894 49.6665 13.2861C48.7902 12.3761 48.3521 11.065 48.3521 9.35288C48.3521 7.64072 48.8205 6.31614 49.7575 5.37917C50.7012 4.43546 52.0427 3.9636 53.7818 3.9636C54.9682 3.9636 56.0939 4.22649 57.1589 4.75227L56.1074 7.38119C55.1637 6.97 54.3952 6.76441 53.802 6.76441C53.2088 6.76441 52.7538 6.99023 52.437 7.44186C52.1269 7.88675 51.9719 8.51702 51.9719 9.33266C51.9719 10.9842 52.5819 11.8099 53.802 11.8099C54.8401 11.8099 55.8411 11.5066 56.805 10.8999V13.731C55.8816 14.3377 54.7794 14.6411 53.4987 14.6411Z" fill="white"/>
<path d="M68.8859 14.459H66.2064L65.7615 13.1749H65.5492C65.2526 13.6468 64.8346 14.0108 64.2954 14.2669C63.7629 14.5163 63.1427 14.6411 62.4349 14.6411C61.3025 14.6411 60.4194 14.3108 59.7858 13.6502C59.1589 12.9896 58.8454 12.0627 58.8454 10.8696V4.1456H62.4046V9.77755C62.4046 10.4651 62.499 10.9808 62.6877 11.3246C62.8832 11.6616 63.1966 11.8301 63.628 11.8301C64.2415 11.8301 64.6762 11.5908 64.9324 11.1122C65.1953 10.6269 65.3267 9.81126 65.3267 8.66532V4.1456H68.8859V14.459Z" fill="white"/>
<path d="M74.9154 4.1456V14.459H71.3562V4.1456H74.9154ZM75.0569 1.58746C75.0569 2.62555 74.4233 3.14459 73.156 3.14459C71.8955 3.14459 71.2652 2.62555 71.2652 1.58746C71.2652 1.04146 71.4135 0.640377 71.7101 0.384226C72.0135 0.128075 72.4921 0 73.1459 0C73.8065 0 74.2885 0.131446 74.5918 0.394337C74.9019 0.657229 75.0569 1.05494 75.0569 1.58746Z" fill="white"/>
<path d="M81.4857 10.8291C81.4857 11.4965 81.8059 11.8301 82.4463 11.8301C82.9182 11.8301 83.4911 11.7122 84.1652 11.4762V14.0647C83.7271 14.2602 83.2822 14.4051 82.8305 14.4995C82.3856 14.5939 81.8666 14.6411 81.2734 14.6411C80.0938 14.6411 79.2343 14.3512 78.695 13.7715C78.1625 13.1918 77.8963 12.2885 77.8963 11.0617V6.81496H76.6526V5.36906L78.2299 4.24671L79.1501 2.08291H81.4857V4.1456H84.0136V6.81496H81.4857V10.8291Z" fill="white"/>
<path d="M6.912 14.032C5.916 14.032 4.992 13.87 4.14 13.546C3.3 13.222 2.568 12.766 1.944 12.178C1.332 11.59 0.852 10.9 0.504 10.108C0.168 9.316 0 8.452 0 7.516C0 6.58 0.168 5.716 0.504 4.924C0.852 4.132 1.338 3.442 1.962 2.854C2.586 2.266 3.318 1.81 4.158 1.486C4.998 1.162 5.91 1 6.894 1C7.89 1 8.802 1.162 9.63 1.486C10.47 1.81 11.196 2.266 11.808 2.854C12.432 3.442 12.918 4.132 13.266 4.924C13.614 5.704 13.788 6.568 13.788 7.516C13.788 8.452 13.614 9.322 13.266 10.126C12.918 10.918 12.432 11.608 11.808 12.196C11.196 12.772 10.47 13.222 9.63 13.546C8.802 13.87 7.896 14.032 6.912 14.032ZM6.894 11.548C7.458 11.548 7.974 11.452 8.442 11.26C8.922 11.068 9.342 10.792 9.702 10.432C10.062 10.072 10.338 9.646 10.53 9.154C10.734 8.662 10.836 8.116 10.836 7.516C10.836 6.916 10.734 6.37 10.53 5.878C10.338 5.386 10.062 4.96 9.702 4.6C9.354 4.24 8.94 3.964 8.46 3.772C7.98 3.58 7.458 3.484 6.894 3.484C6.33 3.484 5.808 3.58 5.328 3.772C4.86 3.964 4.446 4.24 4.086 4.6C3.726 4.96 3.444 5.386 3.24 5.878C3.048 6.37 2.952 6.916 2.952 7.516C2.952 8.104 3.048 8.65 3.24 9.154C3.444 9.646 3.72 10.072 4.068 10.432C4.428 10.792 4.848 11.068 5.328 11.26C5.808 11.452 6.33 11.548 6.894 11.548Z" fill="white"/>
<path d="M21.912 36.032C20.916 36.032 19.992 35.87 19.14 35.546C18.3 35.222 17.568 34.766 16.944 34.178C16.332 33.59 15.852 32.9 15.504 32.108C15.168 31.316 15 30.452 15 29.516C15 28.58 15.168 27.716 15.504 26.924C15.852 26.132 16.338 25.442 16.962 24.854C17.586 24.266 18.318 23.81 19.158 23.486C19.998 23.162 20.91 23 21.894 23C22.89 23 23.802 23.162 24.63 23.486C25.47 23.81 26.196 24.266 26.808 24.854C27.432 25.442 27.918 26.132 28.266 26.924C28.614 27.704 28.788 28.568 28.788 29.516C28.788 30.452 28.614 31.322 28.266 32.126C27.918 32.918 27.432 33.608 26.808 34.196C26.196 34.772 25.47 35.222 24.63 35.546C23.802 35.87 22.896 36.032 21.912 36.032ZM21.894 33.548C22.458 33.548 22.974 33.452 23.442 33.26C23.922 33.068 24.342 32.792 24.702 32.432C25.062 32.072 25.338 31.646 25.53 31.154C25.734 30.662 25.836 30.116 25.836 29.516C25.836 28.916 25.734 28.37 25.53 27.878C25.338 27.386 25.062 26.96 24.702 26.6C24.354 26.24 23.94 25.964 23.46 25.772C22.98 25.58 22.458 25.484 21.894 25.484C21.33 25.484 20.808 25.58 20.328 25.772C19.86 25.964 19.446 26.24 19.086 26.6C18.726 26.96 18.444 27.386 18.24 27.878C18.048 28.37 17.952 28.916 17.952 29.516C17.952 30.104 18.048 30.65 18.24 31.154C18.444 31.646 18.72 32.072 19.068 32.432C19.428 32.792 19.848 33.068 20.328 33.26C20.808 33.452 21.33 33.548 21.894 33.548Z" fill="white"/>
<path d="M37 32.2932C37.7145 32.664 38.4358 32.9437 39.1638 33.1325C39.8918 33.3212 40.5356 33.4156 41.095 33.4156C41.6613 33.4156 42.0725 33.3279 42.3286 33.1527C42.5915 32.9707 42.723 32.728 42.723 32.4247C42.723 32.2427 42.6724 32.0843 42.5713 31.9494C42.4634 31.8146 42.3084 31.6832 42.1062 31.5551C41.9107 31.4203 41.3411 31.1372 40.3974 30.7058C39.4537 30.2744 38.7762 29.8834 38.365 29.5329C37.5157 28.8049 37.091 27.8207 37.091 26.5804C37.091 25.3401 37.5359 24.3761 38.4257 23.6886C39.3222 23.001 40.549 22.6572 42.1062 22.6572C43.4746 22.6572 44.88 22.9774 46.3225 23.6178L45.2204 26.3883C43.9801 25.822 42.905 25.5389 41.9949 25.5389C41.5501 25.5389 41.2164 25.6164 40.9939 25.7715C40.7715 25.9265 40.6603 26.1355 40.6603 26.3984C40.6603 26.6545 40.7951 26.8871 41.0647 27.0961C41.3411 27.305 42.0624 27.6758 43.2285 28.2083C44.3947 28.7341 45.2002 29.2936 45.6451 29.8868C46.0967 30.4665 46.3225 31.208 46.3225 32.1112C46.336 33.365 45.8608 34.3862 44.8969 35.1749C43.9397 35.9636 42.6758 36.3512 41.1052 36.3377C40.2086 36.3377 39.4537 36.2737 38.8402 36.1456C38.2336 36.0108 37.6202 35.7951 37 35.4985V32.2932Z" fill="white"/>
<path d="M54.3542 36.3377C53.815 36.3377 53.3397 36.2501 52.9286 36.0748C52.5241 35.8928 52.123 35.5827 51.7253 35.1446H51.5635C51.6714 35.8389 51.7253 36.2872 51.7253 36.4894V40.635H48.1662V25.8423H51.0681L51.5635 27.1567H51.7253C52.3792 26.1591 53.2824 25.6603 54.4351 25.6603C55.5945 25.6603 56.4978 26.1355 57.1449 27.0859C57.7988 28.0229 58.1257 29.3205 58.1257 30.9788C58.1257 32.637 57.7853 33.9481 57.1045 34.912C56.4237 35.8625 55.5069 36.3377 54.3542 36.3377ZM53.1611 33.4762C53.6465 33.4762 53.9902 33.2808 54.1925 32.8898C54.4014 32.4921 54.5059 31.845 54.5059 30.9484C54.5059 30.0519 54.4014 29.4149 54.1925 29.0374C53.9902 28.6532 53.6397 28.4611 53.1409 28.4611C52.6488 28.4611 52.2949 28.6397 52.0792 28.997C51.8635 29.3542 51.7455 29.9137 51.7253 30.6754V30.9585C51.7253 31.8416 51.8433 32.482 52.0792 32.8797C52.3151 33.2774 52.6758 33.4762 53.1611 33.4762Z" fill="white"/>
<path d="M66.4179 29.725C66.4112 29.2262 66.273 28.8284 66.0033 28.5319C65.7337 28.2353 65.3731 28.087 64.9214 28.087C64.4765 28.087 64.1159 28.2251 63.8395 28.5015C63.5699 28.7711 63.4115 29.179 63.3643 29.725H66.4179ZM65.1237 36.3377C63.4047 36.3377 62.0701 35.8827 61.1196 34.9727C60.1692 34.0492 59.6939 32.7314 59.6939 31.0192C59.6939 29.307 60.1321 27.9858 61.0084 27.0556C61.8847 26.1254 63.1216 25.6603 64.7192 25.6603C66.3168 25.6603 67.5369 26.0681 68.3795 26.8837C69.2288 27.6994 69.6535 28.8655 69.6535 30.3822V31.9596H63.2935C63.3137 32.5393 63.5227 32.9943 63.9204 33.3246C64.3181 33.6481 64.8405 33.8099 65.4877 33.8099C66.1415 33.8099 66.7347 33.7526 67.2672 33.638C67.7998 33.5167 68.3694 33.3111 68.976 33.0212V35.5794C68.4368 35.8625 67.8672 36.058 67.2672 36.1658C66.674 36.2804 65.9595 36.3377 65.1237 36.3377Z" fill="white"/>
<path d="M77.9413 29.725C77.9346 29.2262 77.7964 28.8284 77.5268 28.5319C77.2571 28.2353 76.8965 28.087 76.4449 28.087C76 28.087 75.6393 28.2251 75.363 28.5015C75.0933 28.7711 74.9349 29.179 74.8877 29.725H77.9413ZM76.6471 36.3377C74.9282 36.3377 73.5935 35.8827 72.6431 34.9727C71.6926 34.0492 71.2174 32.7314 71.2174 31.0192C71.2174 29.307 71.6555 27.9858 72.5318 27.0556C73.4081 26.1254 74.6451 25.6603 76.2426 25.6603C77.8402 25.6603 79.0603 26.0681 79.9029 26.8837C80.7523 27.6994 81.1769 28.8655 81.1769 30.3822V31.9596H74.817C74.8372 32.5393 75.0462 32.9943 75.4439 33.3246C75.8416 33.6481 76.364 33.8099 77.0111 33.8099C77.665 33.8099 78.2581 33.7526 78.7907 33.638C79.3232 33.5167 79.8928 33.3111 80.4995 33.0212V35.5794C79.9602 35.8625 79.3906 36.058 78.7907 36.1658C78.1975 36.2804 77.483 36.3377 76.6471 36.3377Z" fill="white"/>
<path d="M87.8874 36.3377C86.209 36.3377 84.9316 35.8861 84.0553 34.9828C83.179 34.0728 82.7408 32.7617 82.7408 31.0495C82.7408 29.3374 83.2093 28.0128 84.1463 27.0758C85.09 26.1321 86.4314 25.6603 88.1705 25.6603C89.3569 25.6603 90.4826 25.9232 91.5477 26.4489L90.4961 29.0779C89.5524 28.6667 88.7839 28.4611 88.1908 28.4611C87.5976 28.4611 87.1426 28.6869 86.8257 29.1385C86.5157 29.5834 86.3606 30.2137 86.3606 31.0293C86.3606 32.6808 86.9707 33.5066 88.1908 33.5066C89.2288 33.5066 90.2298 33.2032 91.1938 32.5966V35.4277C90.2703 36.0344 89.1682 36.3377 87.8874 36.3377Z" fill="white"/>
<path d="M103.315 36.1557H99.7357V30.5339C99.7357 29.152 99.3279 28.4611 98.5122 28.4611C97.919 28.4611 97.4843 28.7105 97.2079 29.2093C96.9383 29.7014 96.8034 30.5069 96.8034 31.6259V36.1557H93.2443V22H96.8034V24.0121C96.8034 24.875 96.7563 25.9097 96.6619 27.1163H96.8237C97.1607 26.5972 97.5584 26.2265 98.0168 26.004C98.4752 25.7749 99.0245 25.6603 99.6649 25.6603C100.824 25.6603 101.721 25.9939 102.355 26.6613C102.995 27.3219 103.315 28.2521 103.315 29.452V36.1557Z" fill="white"/>
</svg>
